Simulation
nRows=36
nColumns=15
endheader
time  TH_x TH_y TH_z SC_y  SC_z  SC_x  AC_y  AC_z  AC_x  GH_y  GH_z  GH_yy  EL_x  PS_y
5.745  0.000000  0.000000  0.000000  -51.357785785255665  20.32937488994364  41.23355819733332  70.28241743482235  -8.630404445323737  23.50509397229257  -5.9597245798688565  55.499969064406564  -16.73038088123042  18.549175173627795  120.000000
5.80245  0.000000  0.000000  0.000000  -49.93200085199106  19.274550969701803  37.12231652502802  70.72768632800094  -8.564140759703728  23.50011770538576  -6.2079907136599575  55.31705769851127  -16.303776016355943  18.8542983489868  120.000000
5.8599  0.000000  0.000000  0.000000  -48.29241929176399  17.796433244767712  32.25113557105824  71.12419581084887  -8.444537673539106  23.581431559074336  -6.690509626924281  54.95828564575772  -15.309312967434483  19.25631473224214  120.000000
5.91735  0.000000  0.000000  0.000000  -46.55570247448952  15.863204193730216  26.85675099763689  71.35315737271097  -8.318209728493219  23.708421317764323  -7.430253924704158  54.46733266300167  -13.684658257924447  19.66232228343133  120.000000
5.9748  0.000000  0.000000  0.000000  -44.849161716966485  13.493747685569591  21.213668519680503  71.29486103762463  -8.251942343852912  23.814892111510293  -8.387699227206282  53.8969726214777  -11.447898800457484  19.966085332473153  120.000000
6.03225  0.000000  0.000000  0.000000  -43.28745636011317  10.756781939511926  15.61412679214368  70.85371454797603  -8.32078064478027  23.81792183872193  -9.465665588398327  53.28999018478319  -8.71060946503307  20.081158009848764  120.000000
6.089700000000001  0.000000  0.000000  0.000000  -41.9388402268848  7.766636631734795  10.345813875288796  69.98749863150552  -8.59022287373974  23.629942223063683  -10.549599603535892  52.657259071067365  -5.661165900667887  19.961901518561444  120.000000
6.14715  0.000000  0.000000  0.000000  -40.791289428032115  4.67238600270728  5.678284567672585  68.72129746696704  -9.099006963537686  23.173231308264068  -11.565833954246386  51.95027475945101  -2.5157959997906545  19.606651963298837  120.000000
6.2046  0.000000  0.000000  0.000000  -39.74241378362706  1.6517305065740104  1.85375510810077  67.1440216176217  -9.849155213406423  22.393945770394332  -12.504628996666325  51.05477318102715  0.5312664740656771  19.037868755225162  120.000000
6.26205  0.000000  0.000000  0.000000  -38.665677628964296  -1.0901642218461425  -0.9286604292854096  65.38617098861631  -10.804414711052905  21.27790887519087  -13.36893252320624  49.8168598820114  3.3322104402383785  18.298754921411554  120.000000
6.3195  0.000000  0.000000  0.000000  -37.52658965705105  -3.33789968777941  -2.5569426100754056  63.599719353107  -11.899855068076857  19.856825544652665  -14.076699107929839  48.10891202748829  5.776119087165497  17.466902521005743  120.000000
6.37695  0.000000  0.000000  0.000000  -36.42933600403507  -4.927535411384238  -3.046950667771524  61.92745030775352  -13.065166192638442  18.19437292311242  -14.440048200202208  45.88892852993533  7.7821720913615575  16.653187012170072  120.000000
6.4344  0.000000  0.000000  0.000000  -35.56071806272713  -5.814795852046068  -2.5389641307542936  60.449588892320065  -14.250514771498503  16.35739531071539  -14.28015965473855  43.219964914441846  9.325563522598406  15.968343118998348  120.000000
6.49185  0.000000  0.000000  0.000000  -35.038250676960686  -6.081984401491418  -1.2445329709460577  59.16846827117201  -15.432789498535849  14.39645846317562  -13.559649168210225  40.24935774519803  10.459305942823068  15.475498121100646  120.000000
6.549300000000001  0.000000  0.000000  0.000000  -34.81471794942862  -5.89631021356607  0.6178660734050921  58.051674553497314  -16.598558472571646  12.354982102072034  -12.403953277221326  37.15423368698721  11.303103687060228  15.2017535866906  120.000000
6.60675  0.000000  0.000000  0.000000  -34.760227826596584  -5.45199530213155  2.839964282454236  57.064262702747364  -17.73437489245659  10.276654099908557  -11.000524630925613  34.10179029674897  11.975277902992163  15.149925949564773  120.000000
6.6642  0.000000  0.000000  0.000000  -34.78037480166412  -4.923409247972821  5.224362593856719  56.16271065409793  -18.829689915280387  8.19726286466076  -9.5077987979407  31.237728848348805  12.54412904612086  15.304734586102862  120.000000
6.72165  0.000000  0.000000  0.000000  -34.827441656438964  -4.437926203718732  7.599458099191767  55.308797730935545  -19.875148232272117  6.145414939258331  -8.049180660735246  28.677082438872702  13.04303765107662  15.633937353047985  120.000000
6.7791  0.000000  0.000000  0.000000  -34.858646218351424  -4.067480963331702  9.83576607332762  54.47782291074073  -20.859057459332075  4.150672294786021  -6.748299658397951  26.490240902048516  13.522964575722572  16.08187638353144  120.000000
6.83655  0.000000  0.000000  0.000000  -34.85133790392323  -3.83715852140335  11.845885130437454  53.66034098882325  -21.766860720411298  2.2477935111229908  -5.707224365216062  24.70349029339622  14.048369832755508  16.573235009759884  120.000000
6.894  0.000000  0.000000  0.000000  -34.81090878244424  -3.7419059728234996  13.577256698321266  52.86532747685735  -22.583730962922193  0.47552386364004506  -4.967356182072096  23.304429407440423  14.659916343716489  17.022502419537656  120.000000
6.95145  0.000000  0.000000  0.000000  -34.747428461912484  -3.761466078580107  15.017742889275636  52.11206906813607  -23.299981397205638  -1.1329767191913485  -4.513918157584339  22.244890314444923  15.361340256026569  17.35138343849876  120.000000
7.008900000000001  0.000000  0.000000  0.000000  -34.6634229461391  -3.862228029325663  16.193281089741564  51.418837434182095  -23.9155719800432  -2.5617485931197943  -4.307823081461792  21.45476575507338  16.128688176733657  17.51520080812748  120.000000
7.06635  0.000000  0.000000  0.000000  -34.55969200061727  -4.005594708076103  17.1470496138591  50.79328984038605  -24.437031663699692  -3.8103076406585776  -4.310340376030232  20.866415066540963  16.92440592570135  17.522639770008684  120.000000
7.1238  0.000000  0.000000  0.000000  -34.44691380182363  -4.1587501586745335  17.92205363788779  50.238261815629734  -24.873743019369872  -4.886584402088189  -4.470757212289592  20.429538247978247  17.68630991612687  17.433571426678373  120.000000
7.18125  0.000000  0.000000  0.000000  -34.340133070432735  -4.2983137706946035  18.55596943658144  49.75404534341333  -25.236052360412028  -5.803058633358725  -4.734417555324236  20.110246250379102  18.345973925223273  17.33327378562706  120.000000
7.2387  0.000000  0.000000  0.000000  -34.25086863977606  -4.4117458339194835  19.079242151076325  49.33964521787383  -25.53406675399683  -6.573967291307817  -5.053137787665515  19.886898781620207  18.851096874365314  17.295551394242487  120.000000
7.29615  0.000000  0.000000  0.000000  -34.18349360160496  -4.495171655380742  19.51460425813057  48.99310375861015  -25.776911496957148  -7.213488258049004  -5.393568141206208  19.744689575635682  19.18449586125862  17.35722516376734  120.000000
7.3536  0.000000  0.000000  0.000000  -34.136112014719885  -4.551977359515635  19.877655266197145  48.71112358758478  -25.9726011846441  -7.735385990098081  -5.740213869353531  19.672606796797872  19.367846111981848  17.511716072783436  120.000000
7.41105  0.000000  0.000000  0.000000  -34.10379473386613  -4.588860565112914  20.178356642041262  48.48852275816663  -26.12819730063571  -8.15335222632854  -6.092494805651597  19.661126896883836  19.45125232231729  17.725879034483594  120.000000
7.468500000000001  0.000000  0.000000  0.000000  -34.08169728478233  -4.612956516271419  20.422835972522762  48.317848142771226  -26.249783747261  -8.480914605533991  -6.4590437576936495  19.701114573469646  19.493886790088926  17.961683358998357  120.000000
7.52595  0.000000  0.000000  0.000000  -34.065789872107814  -4.629664143936475  20.615141051194804  48.19037920851921  -26.342645888175465  -8.731246325849844  -6.851450439640917  19.78291300044773  19.546193173603154  18.193032717169203  120.000000
7.5834  0.000000  0.000000  0.000000  -34.053565470916524  -4.642397955193995  20.758723650545885  48.09685334192577  -26.411266020597115  -8.916657332418309  -7.278688245574071  19.896274948780455  19.638406330980448  18.410863605580456  120.000000
7.64085  0.000000  0.000000  0.000000  -34.04376981400569  -4.652443108564334  20.857676201743505  48.0290610007129  -26.459503309310687  -9.048154160624696  -7.744488690850643  20.03078020442413  19.78010107786323  18.61878520317344  120.000000
7.6983  0.000000  0.000000  0.000000  -34.035766353825224  -4.6594888976400926  20.91755909014803  47.98036889206232  -26.490733101814275  -9.135359430970263  -8.248335820475413  20.176715882758124  19.967120211334162  18.82417444784961  120.000000
7.75575  0.000000  0.000000  0.000000  -34.02930911048197  -4.662121488604257  20.94560339380197  47.94538684222504  -26.50817199137353  -9.18722873385201  -8.786564068005498  20.325839840174336  20.18914260004626  19.031571941790318  120.000000
